<svg width="16" height="16" viewBox="0 0 16 16" fill="none" xmlns="http://www.w3.org/2000/svg">
<path d="M6.66657 0H0.666599C0.300194 0 0 0.300195 0 0.666602V8C0 8.3666 0.300194 8.6666 0.666599 8.6666H6.66657C7.03317 8.6666 7.33337 8.3666 7.33337 8V0.666602C7.33337 0.300195 7.03317 0 6.66657 0Z" fill="white"/>
<path d="M15.3333 7.33333H9.3333C8.9667 7.33333 8.6665 7.63333 8.6665 7.99993V15.3333C8.6665 15.6997 8.9667 15.9999 9.3333 15.9999H15.3333C15.6997 15.9999 15.9999 15.6997 15.9999 15.3333V7.99993C15.9999 7.63333 15.6997 7.33333 15.3333 7.33333Z" fill="white"/>
<path d="M6.66657 9.77777H0.666599C0.300194 9.77777 0 10.078 0 10.4444V15.1112C0 15.4776 0.300194 15.7778 0.666599 15.7778H6.66657C7.03317 15.7778 7.33337 15.4776 7.33337 15.1112V10.4444C7.33337 10.078 7.03317 9.77777 6.66657 9.77777Z" fill="white"/>
<path d="M15.3333 0H9.3333C8.9667 0 8.6665 0.300195 8.6665 0.666602V5.3334C8.6665 5.6998 8.9667 6 9.3333 6H15.3333C15.6997 6 15.9999 5.6998 15.9999 5.3334V0.666602C15.9999 0.300195 15.6997 0 15.3333 0Z" fill="white"/>
</svg>
