<svg viewBox="0 0 83 81" fill="none" xmlns="http://www.w3.org/2000/svg">
<rect x="0.957031" y="10.957" width="70" height="70" rx="11.413" fill="url(#paint0_linear_2938_17583)"/>
<g filter="url(#filter0_diiii_2938_17583)">
<path d="M27.1648 75C25.6924 75 24.3353 74.7701 23.0936 74.3103C21.8695 73.8329 20.7963 73.1609 19.8738 72.2944C18.9691 71.4279 18.2595 70.4111 17.7451 69.244C17.2484 68.0769 17 66.7949 17 65.3979C17 64.0009 17.2484 62.7188 17.7451 61.5517C18.2595 60.3846 18.978 59.3678 19.9004 58.5013C20.8229 57.6348 21.905 56.9717 23.1468 56.5119C24.3885 56.0345 25.7545 55.7958 27.2446 55.7958C28.8944 55.7958 30.3757 56.0699 31.6884 56.618C33.0189 57.1662 34.1365 57.962 35.0412 59.0053L32.2738 61.5517C31.5997 60.8444 30.8635 60.3227 30.0652 59.9867C29.2669 59.6331 28.3977 59.4562 27.4575 59.4562C26.5528 59.4562 25.7279 59.5977 24.9828 59.8806C24.2378 60.1636 23.5903 60.5703 23.0403 61.1008C22.5082 61.6313 22.0913 62.2591 21.7897 62.9841C21.5059 63.7091 21.3639 64.5137 21.3639 65.3979C21.3639 66.2644 21.5059 67.0601 21.7897 67.7851C22.0913 68.5102 22.5082 69.1468 23.0403 69.695C23.5903 70.2255 24.2289 70.6322 24.9562 70.9151C25.7013 71.1981 26.5173 71.3395 27.4043 71.3395C28.2558 71.3395 29.0807 71.2069 29.879 70.9416C30.695 70.6587 31.4844 70.1901 32.2472 69.5358L34.6953 72.6393C33.6841 73.3996 32.5044 73.9832 31.1562 74.3899C29.8257 74.7966 28.4953 75 27.1648 75ZM30.7571 72.0822V65.1061H34.6953V72.6393L30.7571 72.0822Z" fill="white"/>
<path d="M46.8687 74.8939C45.6092 74.8939 44.527 74.6286 43.6223 74.0981C42.7176 73.5676 42.0258 72.763 41.5468 71.6844C41.0678 70.588 40.8283 69.2087 40.8283 67.5464C40.8283 65.8665 41.0767 64.4872 41.5734 63.4085C42.0878 62.3298 42.7974 61.5252 43.7021 60.9947C44.6069 60.4642 45.6624 60.1989 46.8687 60.1989C48.2169 60.1989 49.4232 60.4996 50.4875 61.1008C51.5697 61.702 52.4212 62.5508 53.0421 63.6472C53.6807 64.7436 54 66.0433 54 67.5464C54 69.0318 53.6807 70.3227 53.0421 71.4191C52.4212 72.5155 51.5697 73.3731 50.4875 73.992C49.4232 74.5933 48.2169 74.8939 46.8687 74.8939ZM38.4069 74.6817V55H42.5579V63.3024L42.2918 67.5199L42.3717 71.7639V74.6817H38.4069ZM46.1502 71.4987C46.8421 71.4987 47.4541 71.3395 47.9863 71.0212C48.5362 70.7029 48.9708 70.252 49.2901 69.6684C49.6272 69.0672 49.7957 68.3599 49.7957 67.5464C49.7957 66.7153 49.6272 66.008 49.2901 65.4244C48.9708 64.8408 48.5362 64.3899 47.9863 64.0716C47.4541 63.7533 46.8421 63.5942 46.1502 63.5942C45.4584 63.5942 44.8375 63.7533 44.2876 64.0716C43.7376 64.3899 43.303 64.8408 42.9837 65.4244C42.6644 66.008 42.5047 66.7153 42.5047 67.5464C42.5047 68.3599 42.6644 69.0672 42.9837 69.6684C43.303 70.252 43.7376 70.7029 44.2876 71.0212C44.8375 71.3395 45.4584 71.4987 46.1502 71.4987Z" fill="white"/>
</g>
<g filter="url(#filter1_diiii_2938_17583)">
<path d="M33.7739 51C33.4882 51 33.231 50.9 33.0024 50.7C32.8024 50.5 32.7024 50.2429 32.7024 49.9286V29.5286L26.831 34.0286C26.5739 34.2286 26.3024 34.3 26.0167 34.2429C25.7596 34.1857 25.531 34.0286 25.331 33.7714L22.8024 30.4714C22.631 30.2143 22.5596 29.9429 22.5882 29.6571C22.6453 29.3429 22.8167 29.1 23.1024 28.9286L32.9596 21.3C33.131 21.1857 33.2882 21.1143 33.431 21.0857C33.6024 21.0286 33.7882 21 33.9882 21H39.3453C39.631 21 39.8739 21.1 40.0739 21.3C40.3024 21.5 40.4167 21.7571 40.4167 22.0714V49.9286C40.4167 50.2429 40.3024 50.5 40.0739 50.7C39.8739 50.9 39.631 51 39.3453 51H33.7739Z" fill="white"/>
</g>
<g clip-path="url(#clip0_2938_17583)">
<path d="M62.1445 1.52148C62.5361 0.951913 63.3771 0.951733 63.7686 1.52148L65.5957 4.18066C66.1379 4.96989 67.1853 5.22808 68.0322 4.78125L70.8857 3.27539C71.4971 2.95296 72.2421 3.34407 72.3242 4.03027L72.7061 7.23438C72.8194 8.18506 73.6266 8.9003 74.584 8.89844L77.8105 8.8916C78.5019 8.8901 78.98 9.58258 78.7334 10.2285L77.583 13.2432C77.2417 14.1376 77.6241 15.1457 78.4727 15.5889L81.333 17.083C81.9458 17.403 82.0477 18.238 81.5293 18.6953L79.1094 20.8291C78.3913 21.4625 78.2611 22.5335 78.8066 23.3203L80.6455 25.9717C81.0395 26.5398 80.741 27.3272 80.0693 27.4912L76.9346 28.2559C76.0045 28.4831 75.3923 29.371 75.5098 30.3213L75.9053 33.5234C75.9901 34.2096 75.3604 34.7674 74.6895 34.6006L71.5586 33.8223C70.6294 33.5911 69.6736 34.0922 69.3359 34.9883L68.1982 38.0078C67.9542 38.6544 67.1375 38.8559 66.6211 38.3965L64.2109 36.251C63.4956 35.6146 62.4165 35.6145 61.7012 36.251L59.291 38.3965C58.7746 38.8557 57.9578 38.6544 57.7139 38.0078L56.5762 34.9883C56.2386 34.0922 55.2837 33.5911 54.3545 33.8223L51.2236 34.6006C50.5527 34.7675 49.922 34.2096 50.0068 33.5234L50.4033 30.3213C50.5207 29.371 49.9077 28.483 48.9775 28.2559L45.8428 27.4912C45.1713 27.3271 44.8736 26.5398 45.2676 25.9717L47.1055 23.3203C47.6511 22.5334 47.5218 21.4625 46.8037 20.8291L44.3838 18.6953C43.8654 18.2381 43.9666 17.4032 44.5791 17.083L47.4395 15.5889C48.2883 15.1457 48.6705 14.1377 48.3291 13.2432L47.1787 10.2285C46.9322 9.58259 47.4102 8.8901 48.1016 8.8916L51.3281 8.89844C52.2857 8.9005 53.0927 8.18519 53.2061 7.23438L53.5889 4.03027C53.671 3.34423 54.4151 2.95327 55.0264 3.27539L57.8809 4.78125C58.7277 5.22793 59.7752 4.96982 60.3174 4.18066L62.1445 1.52148Z" fill="#148E87" stroke="#167772" stroke-width="0.902068"/>
<path d="M52.4813 19.7409H55.6989V20.9858H52.4813V19.7409ZM52.5962 23.4277H51.0448V16.7243H56.1107V17.9692H52.5962V23.4277ZM57.161 23.4277V16.7243H60.0626C60.6627 16.7243 61.1798 16.8233 61.6139 17.0212C62.0481 17.2127 62.3832 17.4904 62.6195 17.8543C62.8557 18.2182 62.9738 18.6523 62.9738 19.1567C62.9738 19.6547 62.8557 20.0856 62.6195 20.4495C62.3832 20.807 62.0481 21.0815 61.6139 21.2731C61.1798 21.4646 60.6627 21.5604 60.0626 21.5604H58.0228L58.7123 20.8804V23.4277H57.161ZM61.4224 23.4277L59.7466 20.9954H61.4033L63.0983 23.4277H61.4224ZM58.7123 21.0528L58.0228 20.325H59.9764C60.4552 20.325 60.8127 20.2229 61.0489 20.0186C61.2852 19.8079 61.4033 19.5206 61.4033 19.1567C61.4033 18.7864 61.2852 18.4991 61.0489 18.2948C60.8127 18.0905 60.4552 17.9884 59.9764 17.9884H58.0228L58.7123 17.251V21.0528ZM65.6298 19.4248H68.857V20.6315H65.6298V19.4248ZM65.7447 22.1828H69.3933V23.4277H64.2029V16.7243H69.2688V17.9692H65.7447V22.1828ZM72.0545 19.4248H75.2817V20.6315H72.0545V19.4248ZM72.1694 22.1828H75.818V23.4277H70.6276V16.7243H75.6935V17.9692H72.1694V22.1828Z" fill="white"/>
</g>
<defs>
<filter id="filter0_diiii_2938_17583" x="16.4336" y="54.6224" width="38.1329" height="21.4161" filterUnits="userSpaceOnUse" color-interpolation-filters="sRGB">
<feFlood flood-opacity="0" result="BackgroundImageFix"/>
<feColorMatrix in="SourceAlpha" type="matrix" values="0 0 0 0 0 0 0 0 0 0 0 0 0 0 0 0 0 0 127 0" result="hardAlpha"/>
<feOffset dy="0.472039"/>
<feGaussianBlur stdDeviation="0.283223"/>
<feComposite in2="hardAlpha" operator="out"/>
<feColorMatrix type="matrix" values="0 0 0 0 0 0 0 0 0 0 0 0 0 0 0 0 0 0 0.46 0"/>
<feBlend mode="normal" in2="BackgroundImageFix" result="effect1_dropShadow_2938_17583"/>
<feBlend mode="normal" in="SourceGraphic" in2="effect1_dropShadow_2938_17583" result="shape"/>
<feColorMatrix in="SourceAlpha" type="matrix" values="0 0 0 0 0 0 0 0 0 0 0 0 0 0 0 0 0 0 127 0" result="hardAlpha"/>
<feOffset dx="-0.377631" dy="0.188815"/>
<feGaussianBlur stdDeviation="0.188815"/>
<feComposite in2="hardAlpha" operator="arithmetic" k2="-1" k3="1"/>
<feColorMatrix type="matrix" values="0 0 0 0 0.645772 0 0 0 0 0.645772 0 0 0 0 0.645772 0 0 0 1 0"/>
<feBlend mode="normal" in2="shape" result="effect2_innerShadow_2938_17583"/>
<feColorMatrix in="SourceAlpha" type="matrix" values="0 0 0 0 0 0 0 0 0 0 0 0 0 0 0 0 0 0 127 0" result="hardAlpha"/>
<feOffset dx="0.377631" dy="-0.377631"/>
<feGaussianBlur stdDeviation="0.377631"/>
<feComposite in2="hardAlpha" operator="arithmetic" k2="-1" k3="1"/>
<feColorMatrix type="matrix" values="0 0 0 0 0.838246 0 0 0 0 0.838246 0 0 0 0 0.838246 0 0 0 1 0"/>
<feBlend mode="normal" in2="effect2_innerShadow_2938_17583" result="effect3_innerShadow_2938_17583"/>
<feColorMatrix in="SourceAlpha" type="matrix" values="0 0 0 0 0 0 0 0 0 0 0 0 0 0 0 0 0 0 127 0" result="hardAlpha"/>
<feOffset dy="0.283223"/>
<feGaussianBlur stdDeviation="0.0472039"/>
<feComposite in2="hardAlpha" operator="arithmetic" k2="-1" k3="1"/>
<feColorMatrix type="matrix" values="0 0 0 0 0 0 0 0 0 0 0 0 0 0 0 0 0 0 0.79 0"/>
<feBlend mode="normal" in2="effect3_innerShadow_2938_17583" result="effect4_innerShadow_2938_17583"/>
<feColorMatrix in="SourceAlpha" type="matrix" values="0 0 0 0 0 0 0 0 0 0 0 0 0 0 0 0 0 0 127 0" result="hardAlpha"/>
<feOffset dx="-0.188815" dy="0.0944077"/>
<feGaussianBlur stdDeviation="0.0944077"/>
<feComposite in2="hardAlpha" operator="arithmetic" k2="-1" k3="1"/>
<feColorMatrix type="matrix" values="0 0 0 0 1 0 0 0 0 1 0 0 0 0 1 0 0 0 1 0"/>
<feBlend mode="normal" in2="effect4_innerShadow_2938_17583" result="effect5_innerShadow_2938_17583"/>
</filter>
<filter id="filter1_diiii_2938_17583" x="22.0156" y="20.6224" width="18.9688" height="31.4161" filterUnits="userSpaceOnUse" color-interpolation-filters="sRGB">
<feFlood flood-opacity="0" result="BackgroundImageFix"/>
<feColorMatrix in="SourceAlpha" type="matrix" values="0 0 0 0 0 0 0 0 0 0 0 0 0 0 0 0 0 0 127 0" result="hardAlpha"/>
<feOffset dy="0.472039"/>
<feGaussianBlur stdDeviation="0.283223"/>
<feComposite in2="hardAlpha" operator="out"/>
<feColorMatrix type="matrix" values="0 0 0 0 0 0 0 0 0 0 0 0 0 0 0 0 0 0 0.46 0"/>
<feBlend mode="normal" in2="BackgroundImageFix" result="effect1_dropShadow_2938_17583"/>
<feBlend mode="normal" in="SourceGraphic" in2="effect1_dropShadow_2938_17583" result="shape"/>
<feColorMatrix in="SourceAlpha" type="matrix" values="0 0 0 0 0 0 0 0 0 0 0 0 0 0 0 0 0 0 127 0" result="hardAlpha"/>
<feOffset dx="-0.377631" dy="0.188815"/>
<feGaussianBlur stdDeviation="0.188815"/>
<feComposite in2="hardAlpha" operator="arithmetic" k2="-1" k3="1"/>
<feColorMatrix type="matrix" values="0 0 0 0 0.645772 0 0 0 0 0.645772 0 0 0 0 0.645772 0 0 0 1 0"/>
<feBlend mode="normal" in2="shape" result="effect2_innerShadow_2938_17583"/>
<feColorMatrix in="SourceAlpha" type="matrix" values="0 0 0 0 0 0 0 0 0 0 0 0 0 0 0 0 0 0 127 0" result="hardAlpha"/>
<feOffset dx="0.377631" dy="-0.377631"/>
<feGaussianBlur stdDeviation="0.377631"/>
<feComposite in2="hardAlpha" operator="arithmetic" k2="-1" k3="1"/>
<feColorMatrix type="matrix" values="0 0 0 0 0.838246 0 0 0 0 0.838246 0 0 0 0 0.838246 0 0 0 1 0"/>
<feBlend mode="normal" in2="effect2_innerShadow_2938_17583" result="effect3_innerShadow_2938_17583"/>
<feColorMatrix in="SourceAlpha" type="matrix" values="0 0 0 0 0 0 0 0 0 0 0 0 0 0 0 0 0 0 127 0" result="hardAlpha"/>
<feOffset dy="0.283223"/>
<feGaussianBlur stdDeviation="0.0472039"/>
<feComposite in2="hardAlpha" operator="arithmetic" k2="-1" k3="1"/>
<feColorMatrix type="matrix" values="0 0 0 0 0 0 0 0 0 0 0 0 0 0 0 0 0 0 0.79 0"/>
<feBlend mode="normal" in2="effect3_innerShadow_2938_17583" result="effect4_innerShadow_2938_17583"/>
<feColorMatrix in="SourceAlpha" type="matrix" values="0 0 0 0 0 0 0 0 0 0 0 0 0 0 0 0 0 0 127 0" result="hardAlpha"/>
<feOffset dx="-0.188815" dy="0.0944077"/>
<feGaussianBlur stdDeviation="0.0944077"/>
<feComposite in2="hardAlpha" operator="arithmetic" k2="-1" k3="1"/>
<feColorMatrix type="matrix" values="0 0 0 0 1 0 0 0 0 1 0 0 0 0 1 0 0 0 1 0"/>
<feBlend mode="normal" in2="effect4_innerShadow_2938_17583" result="effect5_innerShadow_2938_17583"/>
</filter>
<linearGradient id="paint0_linear_2938_17583" x1="23.007" y1="29.1577" x2="73.407" y2="77.1077" gradientUnits="userSpaceOnUse">
<stop stop-color="#7FB4E9"/>
<stop offset="1" stop-color="#3346A9"/>
</linearGradient>
<clipPath id="clip0_2938_17583">
<rect width="38.7889" height="39.691" fill="white" transform="translate(43.543 0.5)"/>
</clipPath>
</defs>
</svg>
