<svg width="70" height="70" viewBox="0 0 70 70" fill="none" xmlns="http://www.w3.org/2000/svg">
<g clip-path="url(#clip0_2596_3679)">
<rect width="70" height="70" rx="11.413" fill="url(#paint0_linear_2596_3679)"/>
<path d="M41.2254 76.125H31.1844H29.5779V45.0187H22.75L35.2008 28.875L47.25 45.0187H41.2254V76.125Z" fill="url(#paint1_linear_2596_3679)"/>
<g filter="url(#filter0_diiii_2596_3679)">
<path d="M17.1583 63.116V61.3661L21.658 57.1163C22.0136 56.7941 22.2747 56.5052 22.4413 56.2497C22.608 55.9941 22.7191 55.7608 22.7747 55.5497C22.8413 55.3386 22.8746 55.1442 22.8746 54.9664C22.8746 54.4998 22.7135 54.1443 22.3913 53.8998C22.0802 53.6443 21.6192 53.5165 21.0081 53.5165C20.5192 53.5165 20.0637 53.6109 19.6415 53.7998C19.2304 53.9887 18.8804 54.2831 18.5916 54.6831L16.625 53.4165C17.0694 52.7499 17.6916 52.2221 18.4916 51.8333C19.2915 51.4444 20.2137 51.25 21.2581 51.25C22.1247 51.25 22.8802 51.3944 23.5246 51.6833C24.1801 51.961 24.6857 52.3555 25.0412 52.8665C25.4078 53.3776 25.5912 53.9887 25.5912 54.6998C25.5912 55.0775 25.5412 55.4553 25.4412 55.833C25.3523 56.1997 25.1634 56.5886 24.8745 56.9996C24.5968 57.4107 24.1857 57.8718 23.6413 58.3829L19.9081 61.8994L19.3915 60.9161H25.9745V63.116H17.1583Z" fill="white"/>
<path d="M36.4246 63.316C35.5024 63.316 34.6524 63.1715 33.8747 62.8826C33.1081 62.5827 32.4359 62.1605 31.8582 61.616C31.2915 61.0716 30.8471 60.4328 30.5249 59.6995C30.2138 58.9662 30.0583 58.1607 30.0583 57.283C30.0583 56.4052 30.2138 55.5997 30.5249 54.8664C30.8471 54.1331 31.2971 53.4943 31.8748 52.9499C32.4526 52.4055 33.1303 51.9888 33.908 51.6999C34.6858 51.4 35.5413 51.25 36.4746 51.25C37.5078 51.25 38.4356 51.4222 39.2577 51.7666C40.091 52.111 40.791 52.611 41.3576 53.2665L39.6244 54.8664C39.2022 54.422 38.7411 54.0943 38.2411 53.8832C37.7411 53.6609 37.1967 53.5498 36.6079 53.5498C36.0412 53.5498 35.5246 53.6387 35.058 53.8165C34.5913 53.9943 34.1858 54.2498 33.8414 54.5831C33.5081 54.9164 33.247 55.3109 33.0581 55.7664C32.8803 56.2219 32.7914 56.7274 32.7914 57.283C32.7914 57.8274 32.8803 58.3273 33.0581 58.7829C33.247 59.2384 33.5081 59.6384 33.8414 59.9828C34.1858 60.3161 34.5858 60.5717 35.0413 60.7494C35.5079 60.9272 36.019 61.0161 36.5745 61.0161C37.1079 61.0161 37.6245 60.9328 38.1245 60.7661C38.6355 60.5883 39.13 60.2939 39.6077 59.8828L41.141 61.8327C40.5077 62.3105 39.7688 62.6771 38.9244 62.9326C38.0911 63.1882 37.2578 63.316 36.4246 63.316ZM38.6744 61.4827V57.0996H41.141V61.8327L38.6744 61.4827Z" fill="white"/>
<path d="M48.7653 63.2493C47.9764 63.2493 47.2987 63.0826 46.732 62.7493C46.1654 62.416 45.7321 61.9105 45.4321 61.2327C45.1321 60.5439 44.9821 59.6773 44.9821 58.6329C44.9821 57.5774 45.1377 56.7108 45.4488 56.033C45.771 55.3553 46.2154 54.8498 46.782 54.5165C47.3487 54.1831 48.0098 54.0165 48.7653 54.0165C49.6097 54.0165 50.3652 54.2054 51.0318 54.5831C51.7095 54.9609 52.2428 55.4942 52.6317 56.183C53.0317 56.8719 53.2317 57.6885 53.2317 58.6329C53.2317 59.5662 53.0317 60.3772 52.6317 61.0661C52.2428 61.7549 51.7095 62.2938 51.0318 62.6827C50.3652 63.0604 49.6097 63.2493 48.7653 63.2493ZM43.4656 63.116V50.75H46.0654V55.9664L45.8988 58.6162L45.9488 61.2827V63.116H43.4656ZM48.3153 61.1161C48.7486 61.1161 49.1319 61.0161 49.4652 60.8161C49.8096 60.6161 50.0819 60.3328 50.2818 59.9661C50.4929 59.5884 50.5985 59.144 50.5985 58.6329C50.5985 58.1107 50.4929 57.6663 50.2818 57.2996C50.0819 56.933 49.8096 56.6497 49.4652 56.4497C49.1319 56.2497 48.7486 56.1497 48.3153 56.1497C47.882 56.1497 47.4931 56.2497 47.1487 56.4497C46.8043 56.6497 46.5321 56.933 46.3321 57.2996C46.1321 57.6663 46.0321 58.1107 46.0321 58.6329C46.0321 59.144 46.1321 59.5884 46.3321 59.9661C46.5321 60.3328 46.8043 60.6161 47.1487 60.8161C47.4931 61.0161 47.882 61.1161 48.3153 61.1161Z" fill="white"/>
</g>
<g filter="url(#filter1_diiii_2596_3679)">
<path d="M5.25 22.6692V19.7987L13.9405 8.10606H18.4174L9.91127 19.7987L7.83082 19.193H22.3413V22.6692H5.25ZM15.1782 26.5405V22.6692L15.3099 19.193V15.7432H19.3391V26.5405H15.1782Z" fill="white"/>
<path d="M38.5103 26.8565C37.0532 26.8565 35.7101 26.6282 34.4811 26.1718C33.2697 25.6977 32.2075 25.0306 31.2946 24.1703C30.3992 23.3101 29.697 22.3005 29.1878 21.1418C28.6962 19.9831 28.4504 18.7102 28.4504 17.3233C28.4504 15.9363 28.6962 14.6634 29.1878 13.5047C29.697 12.346 30.408 11.3365 31.3209 10.4762C32.2339 9.61593 33.3048 8.95756 34.5338 8.50109C35.7627 8.02706 37.1146 7.79005 38.5894 7.79005C40.2221 7.79005 41.6881 8.06217 42.9873 8.60643C44.304 9.15068 45.4101 9.94073 46.3055 10.9766L43.5666 13.5047C42.8995 12.8024 42.1709 12.2845 41.3809 11.951C40.5908 11.5998 39.7305 11.4243 38.8 11.4243C37.9046 11.4243 37.0883 11.5647 36.3509 11.8456C35.6135 12.1265 34.9727 12.5303 34.4284 13.057C33.9018 13.5837 33.4892 14.207 33.1907 14.9268C32.9098 15.6466 32.7694 16.4454 32.7694 17.3233C32.7694 18.1835 32.9098 18.9736 33.1907 19.6934C33.4892 20.4132 33.9018 21.0453 34.4284 21.5895C34.9727 22.1162 35.6047 22.52 36.3246 22.8009C37.0619 23.0818 37.8695 23.2223 38.7474 23.2223C39.5901 23.2223 40.4065 23.0906 41.1965 22.8272C42.0041 22.5463 42.7854 22.0811 43.5403 21.4315L45.9631 24.5127C44.9624 25.2676 43.7949 25.847 42.4606 26.2508C41.1438 26.6546 39.8271 26.8565 38.5103 26.8565ZM42.0656 23.9596V17.0336H45.9631V24.5127L42.0656 23.9596Z" fill="white"/>
<path d="M58.0109 26.7511C56.7644 26.7511 55.6934 26.4878 54.798 25.9611C53.9027 25.4344 53.218 24.6356 52.7439 23.5646C52.2699 22.4761 52.0329 21.1067 52.0329 19.4564C52.0329 17.7885 52.2787 16.4191 52.7703 15.3481C53.2794 14.2772 53.9817 13.4784 54.8771 12.9517C55.7724 12.425 56.8171 12.1616 58.0109 12.1616C59.3452 12.1616 60.539 12.4601 61.5924 13.057C62.6634 13.6539 63.5061 14.4967 64.1206 15.5852C64.7526 16.6737 65.0686 17.9641 65.0686 19.4564C65.0686 20.9311 64.7526 22.2128 64.1206 23.3013C63.5061 24.3898 62.6634 25.2413 61.5924 25.8558C60.539 26.4527 59.3452 26.7511 58.0109 26.7511ZM49.6364 26.5405V7H53.7447V15.2428L53.4813 19.4301L53.5603 23.6436V26.5405H49.6364ZM57.2999 23.3803C57.9846 23.3803 58.5903 23.2223 59.117 22.9063C59.6612 22.5902 60.0914 22.1425 60.4074 21.5632C60.7409 20.9663 60.9077 20.264 60.9077 19.4564C60.9077 18.6312 60.7409 17.929 60.4074 17.3496C60.0914 16.7702 59.6612 16.3225 59.117 16.0065C58.5903 15.6905 57.9846 15.5325 57.2999 15.5325C56.6152 15.5325 56.0007 15.6905 55.4564 16.0065C54.9122 16.3225 54.482 16.7702 54.166 17.3496C53.85 17.929 53.692 18.6312 53.692 19.4564C53.692 20.264 53.85 20.9663 54.166 21.5632C54.482 22.1425 54.9122 22.5902 55.4564 22.9063C56.0007 23.2223 56.6152 23.3803 57.2999 23.3803Z" fill="white"/>
</g>
</g>
<defs>
<filter id="filter0_diiii_2596_3679" x="16.2665" y="50.511" width="37.3236" height="13.4621" filterUnits="userSpaceOnUse" color-interpolation-filters="sRGB">
<feFlood flood-opacity="0" result="BackgroundImageFix"/>
<feColorMatrix in="SourceAlpha" type="matrix" values="0 0 0 0 0 0 0 0 0 0 0 0 0 0 0 0 0 0 127 0" result="hardAlpha"/>
<feOffset dy="0.298724"/>
<feGaussianBlur stdDeviation="0.179235"/>
<feComposite in2="hardAlpha" operator="out"/>
<feColorMatrix type="matrix" values="0 0 0 0 0 0 0 0 0 0 0 0 0 0 0 0 0 0 0.46 0"/>
<feBlend mode="normal" in2="BackgroundImageFix" result="effect1_dropShadow_2596_3679"/>
<feBlend mode="normal" in="SourceGraphic" in2="effect1_dropShadow_2596_3679" result="shape"/>
<feColorMatrix in="SourceAlpha" type="matrix" values="0 0 0 0 0 0 0 0 0 0 0 0 0 0 0 0 0 0 127 0" result="hardAlpha"/>
<feOffset dx="-0.238979" dy="0.11949"/>
<feGaussianBlur stdDeviation="0.11949"/>
<feComposite in2="hardAlpha" operator="arithmetic" k2="-1" k3="1"/>
<feColorMatrix type="matrix" values="0 0 0 0 0.645772 0 0 0 0 0.645772 0 0 0 0 0.645772 0 0 0 1 0"/>
<feBlend mode="normal" in2="shape" result="effect2_innerShadow_2596_3679"/>
<feColorMatrix in="SourceAlpha" type="matrix" values="0 0 0 0 0 0 0 0 0 0 0 0 0 0 0 0 0 0 127 0" result="hardAlpha"/>
<feOffset dx="0.238979" dy="-0.238979"/>
<feGaussianBlur stdDeviation="0.238979"/>
<feComposite in2="hardAlpha" operator="arithmetic" k2="-1" k3="1"/>
<feColorMatrix type="matrix" values="0 0 0 0 0.838246 0 0 0 0 0.838246 0 0 0 0 0.838246 0 0 0 1 0"/>
<feBlend mode="normal" in2="effect2_innerShadow_2596_3679" result="effect3_innerShadow_2596_3679"/>
<feColorMatrix in="SourceAlpha" type="matrix" values="0 0 0 0 0 0 0 0 0 0 0 0 0 0 0 0 0 0 127 0" result="hardAlpha"/>
<feOffset dy="0.179235"/>
<feGaussianBlur stdDeviation="0.0298724"/>
<feComposite in2="hardAlpha" operator="arithmetic" k2="-1" k3="1"/>
<feColorMatrix type="matrix" values="0 0 0 0 0 0 0 0 0 0 0 0 0 0 0 0 0 0 0.79 0"/>
<feBlend mode="normal" in2="effect3_innerShadow_2596_3679" result="effect4_innerShadow_2596_3679"/>
<feColorMatrix in="SourceAlpha" type="matrix" values="0 0 0 0 0 0 0 0 0 0 0 0 0 0 0 0 0 0 127 0" result="hardAlpha"/>
<feOffset dx="-0.11949" dy="0.0597449"/>
<feGaussianBlur stdDeviation="0.0597449"/>
<feComposite in2="hardAlpha" operator="arithmetic" k2="-1" k3="1"/>
<feColorMatrix type="matrix" values="0 0 0 0 1 0 0 0 0 1 0 0 0 0 1 0 0 0 1 0"/>
<feBlend mode="normal" in2="effect4_innerShadow_2596_3679" result="effect5_innerShadow_2596_3679"/>
</filter>
<filter id="filter1_diiii_2596_3679" x="4.68355" y="6.62237" width="60.9515" height="21.2726" filterUnits="userSpaceOnUse" color-interpolation-filters="sRGB">
<feFlood flood-opacity="0" result="BackgroundImageFix"/>
<feColorMatrix in="SourceAlpha" type="matrix" values="0 0 0 0 0 0 0 0 0 0 0 0 0 0 0 0 0 0 127 0" result="hardAlpha"/>
<feOffset dy="0.472039"/>
<feGaussianBlur stdDeviation="0.283223"/>
<feComposite in2="hardAlpha" operator="out"/>
<feColorMatrix type="matrix" values="0 0 0 0 0 0 0 0 0 0 0 0 0 0 0 0 0 0 0.46 0"/>
<feBlend mode="normal" in2="BackgroundImageFix" result="effect1_dropShadow_2596_3679"/>
<feBlend mode="normal" in="SourceGraphic" in2="effect1_dropShadow_2596_3679" result="shape"/>
<feColorMatrix in="SourceAlpha" type="matrix" values="0 0 0 0 0 0 0 0 0 0 0 0 0 0 0 0 0 0 127 0" result="hardAlpha"/>
<feOffset dx="-0.377631" dy="0.188815"/>
<feGaussianBlur stdDeviation="0.188815"/>
<feComposite in2="hardAlpha" operator="arithmetic" k2="-1" k3="1"/>
<feColorMatrix type="matrix" values="0 0 0 0 0.645772 0 0 0 0 0.645772 0 0 0 0 0.645772 0 0 0 1 0"/>
<feBlend mode="normal" in2="shape" result="effect2_innerShadow_2596_3679"/>
<feColorMatrix in="SourceAlpha" type="matrix" values="0 0 0 0 0 0 0 0 0 0 0 0 0 0 0 0 0 0 127 0" result="hardAlpha"/>
<feOffset dx="0.377631" dy="-0.377631"/>
<feGaussianBlur stdDeviation="0.377631"/>
<feComposite in2="hardAlpha" operator="arithmetic" k2="-1" k3="1"/>
<feColorMatrix type="matrix" values="0 0 0 0 0.838246 0 0 0 0 0.838246 0 0 0 0 0.838246 0 0 0 1 0"/>
<feBlend mode="normal" in2="effect2_innerShadow_2596_3679" result="effect3_innerShadow_2596_3679"/>
<feColorMatrix in="SourceAlpha" type="matrix" values="0 0 0 0 0 0 0 0 0 0 0 0 0 0 0 0 0 0 127 0" result="hardAlpha"/>
<feOffset dy="0.283223"/>
<feGaussianBlur stdDeviation="0.0472039"/>
<feComposite in2="hardAlpha" operator="arithmetic" k2="-1" k3="1"/>
<feColorMatrix type="matrix" values="0 0 0 0 0 0 0 0 0 0 0 0 0 0 0 0 0 0 0.79 0"/>
<feBlend mode="normal" in2="effect3_innerShadow_2596_3679" result="effect4_innerShadow_2596_3679"/>
<feColorMatrix in="SourceAlpha" type="matrix" values="0 0 0 0 0 0 0 0 0 0 0 0 0 0 0 0 0 0 127 0" result="hardAlpha"/>
<feOffset dx="-0.188815" dy="0.0944077"/>
<feGaussianBlur stdDeviation="0.0944077"/>
<feComposite in2="hardAlpha" operator="arithmetic" k2="-1" k3="1"/>
<feColorMatrix type="matrix" values="0 0 0 0 1 0 0 0 0 1 0 0 0 0 1 0 0 0 1 0"/>
<feBlend mode="normal" in2="effect4_innerShadow_2596_3679" result="effect5_innerShadow_2596_3679"/>
</filter>
<linearGradient id="paint0_linear_2596_3679" x1="22.05" y1="18.2007" x2="72.45" y2="66.1507" gradientUnits="userSpaceOnUse">
<stop stop-color="#7FB4E9"/>
<stop offset="1" stop-color="#3346A9"/>
</linearGradient>
<linearGradient id="paint1_linear_2596_3679" x1="35" y1="14" x2="35" y2="69.5625" gradientUnits="userSpaceOnUse">
<stop offset="0.157721" stop-color="white"/>
<stop offset="0.596019" stop-color="white" stop-opacity="0.19"/>
<stop offset="1" stop-color="white" stop-opacity="0"/>
</linearGradient>
<clipPath id="clip0_2596_3679">
<rect width="70" height="70" fill="white"/>
</clipPath>
</defs>
</svg>
