<svg width="83" height="81" viewBox="0 0 83 81" fill="none" xmlns="http://www.w3.org/2000/svg">
<rect x="0.957031" y="10.957" width="70" height="70" rx="11.413" fill="url(#paint0_linear_2596_7267)"/>
<g filter="url(#filter0_diiii_2596_7267)">
<path d="M27.1648 75C25.6924 75 24.3353 74.7701 23.0936 74.3103C21.8695 73.8329 20.7963 73.1609 19.8738 72.2944C18.9691 71.4279 18.2595 70.4111 17.7451 69.244C17.2484 68.0769 17 66.7949 17 65.3979C17 64.0009 17.2484 62.7188 17.7451 61.5517C18.2595 60.3846 18.978 59.3678 19.9004 58.5013C20.8229 57.6348 21.905 56.9717 23.1468 56.5119C24.3885 56.0345 25.7545 55.7958 27.2446 55.7958C28.8944 55.7958 30.3757 56.0699 31.6884 56.618C33.0189 57.1662 34.1365 57.962 35.0412 59.0053L32.2738 61.5517C31.5997 60.8444 30.8635 60.3227 30.0652 59.9867C29.2669 59.6331 28.3977 59.4562 27.4575 59.4562C26.5528 59.4562 25.7279 59.5977 24.9828 59.8806C24.2378 60.1636 23.5903 60.5703 23.0403 61.1008C22.5082 61.6313 22.0913 62.2591 21.7897 62.9841C21.5059 63.7091 21.3639 64.5137 21.3639 65.3979C21.3639 66.2644 21.5059 67.0601 21.7897 67.7851C22.0913 68.5102 22.5082 69.1468 23.0403 69.695C23.5903 70.2255 24.2289 70.6322 24.9562 70.9151C25.7013 71.1981 26.5173 71.3395 27.4043 71.3395C28.2558 71.3395 29.0807 71.2069 29.879 70.9416C30.695 70.6587 31.4844 70.1901 32.2472 69.5358L34.6953 72.6393C33.6841 73.3996 32.5044 73.9832 31.1562 74.3899C29.8257 74.7966 28.4953 75 27.1648 75ZM30.7571 72.0822V65.1061H34.6953V72.6393L30.7571 72.0822Z" fill="white"/>
<path d="M46.8687 74.8939C45.6092 74.8939 44.527 74.6286 43.6223 74.0981C42.7176 73.5676 42.0258 72.763 41.5468 71.6844C41.0678 70.588 40.8283 69.2087 40.8283 67.5464C40.8283 65.8665 41.0767 64.4872 41.5734 63.4085C42.0878 62.3298 42.7974 61.5252 43.7021 60.9947C44.6069 60.4642 45.6624 60.1989 46.8687 60.1989C48.2169 60.1989 49.4232 60.4996 50.4875 61.1008C51.5697 61.702 52.4212 62.5508 53.0421 63.6472C53.6807 64.7436 54 66.0433 54 67.5464C54 69.0318 53.6807 70.3227 53.0421 71.4191C52.4212 72.5155 51.5697 73.3731 50.4875 73.992C49.4232 74.5933 48.2169 74.8939 46.8687 74.8939ZM38.4069 74.6817V55H42.5579V63.3024L42.2918 67.5199L42.3717 71.7639V74.6817H38.4069ZM46.1502 71.4987C46.8421 71.4987 47.4541 71.3395 47.9863 71.0212C48.5362 70.7029 48.9708 70.252 49.2901 69.6684C49.6272 69.0672 49.7957 68.3599 49.7957 67.5464C49.7957 66.7153 49.6272 66.008 49.2901 65.4244C48.9708 64.8408 48.5362 64.3899 47.9863 64.0716C47.4541 63.7533 46.8421 63.5942 46.1502 63.5942C45.4584 63.5942 44.8375 63.7533 44.2876 64.0716C43.7376 64.3899 43.303 64.8408 42.9837 65.4244C42.6644 66.008 42.5047 66.7153 42.5047 67.5464C42.5047 68.3599 42.6644 69.0672 42.9837 69.6684C43.303 70.252 43.7376 70.7029 44.2876 71.0212C44.8375 71.3395 45.4584 71.4987 46.1502 71.4987Z" fill="white"/>
</g>
<g filter="url(#filter1_diiii_2596_7267)">
<path d="M35.4402 51C32.9422 51 30.8562 50.5921 29.182 49.7764C27.5078 48.9325 26.2322 47.8495 25.3553 46.5274C24.5049 45.1772 24.0531 43.7286 24 42.1814C24 41.9283 24.0797 41.7173 24.2392 41.5485C24.3986 41.3797 24.5979 41.2954 24.8371 41.2954H30.1785C30.524 41.2954 30.7897 41.3797 30.9757 41.5485C31.1883 41.6892 31.3478 41.872 31.4541 42.097C31.6932 42.744 31.9988 43.2785 32.3709 43.7004C32.7695 44.1224 33.2213 44.4318 33.7262 44.6287C34.2577 44.8256 34.8423 44.924 35.4801 44.924C36.2241 44.924 36.9151 44.7553 37.5529 44.4177C38.1906 44.0802 38.6956 43.5879 39.0676 42.9409C39.4662 42.2658 39.6655 41.4641 39.6655 40.5359C39.6655 39.692 39.4795 38.9606 39.1075 38.3418C38.762 37.7229 38.2704 37.2307 37.6326 36.865C36.9948 36.4993 36.2773 36.3165 35.4801 36.3165C34.8423 36.3165 34.3241 36.4008 33.9255 36.5696C33.5269 36.7103 33.1947 36.8931 32.9289 37.1181C32.6632 37.3432 32.424 37.5401 32.2114 37.7089C31.9988 37.8495 31.7597 37.9198 31.4939 37.9198H26.2721C26.0329 37.9198 25.8203 37.8354 25.6343 37.6667C25.4749 37.4698 25.3951 37.2447 25.3951 36.9916L26.8302 22.2658C26.8833 21.8439 27.0295 21.5345 27.2686 21.3376C27.5078 21.1125 27.8001 21 28.1456 21H44.13C44.4223 21 44.6615 21.0985 44.8475 21.2954C45.0335 21.4923 45.1265 21.7454 45.1265 22.0549V26.0211C45.1265 26.3305 45.0335 26.5837 44.8475 26.7806C44.6615 26.9775 44.4223 27.0759 44.13 27.0759H32.5702L32.052 32.5612C32.6366 32.1392 33.3143 31.8017 34.0849 31.5485C34.8821 31.2672 35.9584 31.1266 37.3137 31.1266C38.5893 31.1266 39.7984 31.3516 40.9411 31.8017C42.1103 32.2518 43.1467 32.8987 44.0503 33.7426C44.9804 34.5865 45.6979 35.5992 46.2028 36.7806C46.7343 37.9339 47 39.2419 47 40.7046C47 42.7018 46.535 44.474 45.6049 46.0211C44.7013 47.5682 43.3859 48.7918 41.6586 49.692C39.9313 50.564 37.8585 51 35.4402 51Z" fill="white"/>
</g>
<g clip-path="url(#clip0_2596_7267)">
<path d="M62.146 1.52158C62.5375 0.951722 63.3789 0.951722 63.7704 1.52158L65.5976 4.18097C66.1398 4.9702 67.1871 5.22834 68.034 4.78151L70.8878 3.27585C71.4993 2.95322 72.2442 3.3442 72.3261 4.03074L72.7081 7.23464C72.8214 8.18546 73.6288 8.90073 74.5864 8.89866L77.8129 8.89167C78.5043 8.89017 78.9823 9.58257 78.7357 10.2285L77.585 13.2429C77.2435 14.1375 77.626 15.1461 78.4748 15.5892L81.3351 17.0825C81.948 17.4025 82.0494 18.2377 81.5309 18.6951L79.1111 20.8294C78.393 21.4629 78.263 22.5337 78.8086 23.3205L80.6473 25.972C81.0413 26.5401 80.7429 27.3268 80.0713 27.4908L76.9368 28.2562C76.0066 28.4833 75.3938 29.371 75.5113 30.3214L75.9072 33.5236C75.992 34.2098 75.3622 34.7677 74.6913 34.6007L71.5601 33.8218C70.6309 33.5906 69.6758 34.0919 69.3382 34.988L68.2006 38.0073C67.9568 38.6543 67.1399 38.8557 66.6234 38.3961L64.2129 36.2512C63.4975 35.6147 62.4189 35.6147 61.7035 36.2512L59.293 38.3961C58.7765 38.8557 57.9596 38.6543 57.7158 38.0073L56.5782 34.988C56.2406 34.0919 55.2855 33.5906 54.3563 33.8218L51.2251 34.6007C50.5542 34.7677 49.9244 34.2098 50.0093 33.5236L50.4051 30.3214C50.5226 29.371 49.9099 28.4833 48.9796 28.2562L45.8451 27.4908C45.1735 27.3268 44.8751 26.5401 45.2691 25.972L47.1078 23.3205C47.6534 22.5337 47.5234 21.4629 46.8053 20.8295L44.3855 18.6951C43.867 18.2377 43.9684 17.4025 44.5813 17.0825L47.4416 15.5892C48.2904 15.1461 48.6729 14.1375 48.3314 13.2429L47.1807 10.2285C46.9342 9.58257 47.4121 8.89017 48.1035 8.89167L51.3301 8.89866C52.2876 8.90073 53.095 8.18545 53.2084 7.23464L53.5903 4.03074C53.6722 3.3442 54.4172 2.95322 55.0287 3.27585L57.8824 4.78151C58.7293 5.22834 59.7766 4.9702 60.3189 4.18097L62.146 1.52158Z" fill="#148E87" stroke="#167772" stroke-width="0.902068"/>
<path d="M52.4793 19.7409H55.697V20.9858H52.4793V19.7409ZM52.5942 23.4277H51.0429V16.7243H56.1087V17.9692H52.5942V23.4277ZM57.159 23.4277V16.7243H60.0606C60.6607 16.7243 61.1779 16.8233 61.612 17.0212C62.0461 17.2127 62.3813 17.4904 62.6175 17.8543C62.8537 18.2182 62.9718 18.6523 62.9718 19.1567C62.9718 19.6547 62.8537 20.0856 62.6175 20.4495C62.3813 20.807 62.0461 21.0815 61.612 21.2731C61.1779 21.4646 60.6607 21.5604 60.0606 21.5604H58.0209L58.7104 20.8804V23.4277H57.159ZM61.4205 23.4277L59.7446 20.9954H61.4013L63.0963 23.4277H61.4205ZM58.7104 21.0528L58.0209 20.325H59.9744C60.4533 20.325 60.8108 20.2229 61.047 20.0186C61.2832 19.8079 61.4013 19.5206 61.4013 19.1567C61.4013 18.7864 61.2832 18.4991 61.047 18.2948C60.8108 18.0905 60.4533 17.9884 59.9744 17.9884H58.0209L58.7104 17.251V21.0528ZM65.6278 19.4248H68.855V20.6315H65.6278V19.4248ZM65.7427 22.1828H69.3913V23.4277H64.201V16.7243H69.2668V17.9692H65.7427V22.1828ZM72.0526 19.4248H75.2798V20.6315H72.0526V19.4248ZM72.1675 22.1828H75.816V23.4277H70.6257V16.7243H75.6916V17.9692H72.1675V22.1828Z" fill="white"/>
</g>
<defs>
<filter id="filter0_diiii_2596_7267" x="16.4336" y="54.6224" width="38.1329" height="21.4161" filterUnits="userSpaceOnUse" color-interpolation-filters="sRGB">
<feFlood flood-opacity="0" result="BackgroundImageFix"/>
<feColorMatrix in="SourceAlpha" type="matrix" values="0 0 0 0 0 0 0 0 0 0 0 0 0 0 0 0 0 0 127 0" result="hardAlpha"/>
<feOffset dy="0.472039"/>
<feGaussianBlur stdDeviation="0.283223"/>
<feComposite in2="hardAlpha" operator="out"/>
<feColorMatrix type="matrix" values="0 0 0 0 0 0 0 0 0 0 0 0 0 0 0 0 0 0 0.46 0"/>
<feBlend mode="normal" in2="BackgroundImageFix" result="effect1_dropShadow_2596_7267"/>
<feBlend mode="normal" in="SourceGraphic" in2="effect1_dropShadow_2596_7267" result="shape"/>
<feColorMatrix in="SourceAlpha" type="matrix" values="0 0 0 0 0 0 0 0 0 0 0 0 0 0 0 0 0 0 127 0" result="hardAlpha"/>
<feOffset dx="-0.377631" dy="0.188815"/>
<feGaussianBlur stdDeviation="0.188815"/>
<feComposite in2="hardAlpha" operator="arithmetic" k2="-1" k3="1"/>
<feColorMatrix type="matrix" values="0 0 0 0 0.645772 0 0 0 0 0.645772 0 0 0 0 0.645772 0 0 0 1 0"/>
<feBlend mode="normal" in2="shape" result="effect2_innerShadow_2596_7267"/>
<feColorMatrix in="SourceAlpha" type="matrix" values="0 0 0 0 0 0 0 0 0 0 0 0 0 0 0 0 0 0 127 0" result="hardAlpha"/>
<feOffset dx="0.377631" dy="-0.377631"/>
<feGaussianBlur stdDeviation="0.377631"/>
<feComposite in2="hardAlpha" operator="arithmetic" k2="-1" k3="1"/>
<feColorMatrix type="matrix" values="0 0 0 0 0.838246 0 0 0 0 0.838246 0 0 0 0 0.838246 0 0 0 1 0"/>
<feBlend mode="normal" in2="effect2_innerShadow_2596_7267" result="effect3_innerShadow_2596_7267"/>
<feColorMatrix in="SourceAlpha" type="matrix" values="0 0 0 0 0 0 0 0 0 0 0 0 0 0 0 0 0 0 127 0" result="hardAlpha"/>
<feOffset dy="0.283223"/>
<feGaussianBlur stdDeviation="0.0472039"/>
<feComposite in2="hardAlpha" operator="arithmetic" k2="-1" k3="1"/>
<feColorMatrix type="matrix" values="0 0 0 0 0 0 0 0 0 0 0 0 0 0 0 0 0 0 0.79 0"/>
<feBlend mode="normal" in2="effect3_innerShadow_2596_7267" result="effect4_innerShadow_2596_7267"/>
<feColorMatrix in="SourceAlpha" type="matrix" values="0 0 0 0 0 0 0 0 0 0 0 0 0 0 0 0 0 0 127 0" result="hardAlpha"/>
<feOffset dx="-0.188815" dy="0.0944077"/>
<feGaussianBlur stdDeviation="0.0944077"/>
<feComposite in2="hardAlpha" operator="arithmetic" k2="-1" k3="1"/>
<feColorMatrix type="matrix" values="0 0 0 0 1 0 0 0 0 1 0 0 0 0 1 0 0 0 1 0"/>
<feBlend mode="normal" in2="effect4_innerShadow_2596_7267" result="effect5_innerShadow_2596_7267"/>
</filter>
<filter id="filter1_diiii_2596_7267" x="23.4336" y="20.6224" width="24.1329" height="31.4161" filterUnits="userSpaceOnUse" color-interpolation-filters="sRGB">
<feFlood flood-opacity="0" result="BackgroundImageFix"/>
<feColorMatrix in="SourceAlpha" type="matrix" values="0 0 0 0 0 0 0 0 0 0 0 0 0 0 0 0 0 0 127 0" result="hardAlpha"/>
<feOffset dy="0.472039"/>
<feGaussianBlur stdDeviation="0.283223"/>
<feComposite in2="hardAlpha" operator="out"/>
<feColorMatrix type="matrix" values="0 0 0 0 0 0 0 0 0 0 0 0 0 0 0 0 0 0 0.46 0"/>
<feBlend mode="normal" in2="BackgroundImageFix" result="effect1_dropShadow_2596_7267"/>
<feBlend mode="normal" in="SourceGraphic" in2="effect1_dropShadow_2596_7267" result="shape"/>
<feColorMatrix in="SourceAlpha" type="matrix" values="0 0 0 0 0 0 0 0 0 0 0 0 0 0 0 0 0 0 127 0" result="hardAlpha"/>
<feOffset dx="-0.377631" dy="0.188815"/>
<feGaussianBlur stdDeviation="0.188815"/>
<feComposite in2="hardAlpha" operator="arithmetic" k2="-1" k3="1"/>
<feColorMatrix type="matrix" values="0 0 0 0 0.645772 0 0 0 0 0.645772 0 0 0 0 0.645772 0 0 0 1 0"/>
<feBlend mode="normal" in2="shape" result="effect2_innerShadow_2596_7267"/>
<feColorMatrix in="SourceAlpha" type="matrix" values="0 0 0 0 0 0 0 0 0 0 0 0 0 0 0 0 0 0 127 0" result="hardAlpha"/>
<feOffset dx="0.377631" dy="-0.377631"/>
<feGaussianBlur stdDeviation="0.377631"/>
<feComposite in2="hardAlpha" operator="arithmetic" k2="-1" k3="1"/>
<feColorMatrix type="matrix" values="0 0 0 0 0.838246 0 0 0 0 0.838246 0 0 0 0 0.838246 0 0 0 1 0"/>
<feBlend mode="normal" in2="effect2_innerShadow_2596_7267" result="effect3_innerShadow_2596_7267"/>
<feColorMatrix in="SourceAlpha" type="matrix" values="0 0 0 0 0 0 0 0 0 0 0 0 0 0 0 0 0 0 127 0" result="hardAlpha"/>
<feOffset dy="0.283223"/>
<feGaussianBlur stdDeviation="0.0472039"/>
<feComposite in2="hardAlpha" operator="arithmetic" k2="-1" k3="1"/>
<feColorMatrix type="matrix" values="0 0 0 0 0 0 0 0 0 0 0 0 0 0 0 0 0 0 0.79 0"/>
<feBlend mode="normal" in2="effect3_innerShadow_2596_7267" result="effect4_innerShadow_2596_7267"/>
<feColorMatrix in="SourceAlpha" type="matrix" values="0 0 0 0 0 0 0 0 0 0 0 0 0 0 0 0 0 0 127 0" result="hardAlpha"/>
<feOffset dx="-0.188815" dy="0.0944077"/>
<feGaussianBlur stdDeviation="0.0944077"/>
<feComposite in2="hardAlpha" operator="arithmetic" k2="-1" k3="1"/>
<feColorMatrix type="matrix" values="0 0 0 0 1 0 0 0 0 1 0 0 0 0 1 0 0 0 1 0"/>
<feBlend mode="normal" in2="effect4_innerShadow_2596_7267" result="effect5_innerShadow_2596_7267"/>
</filter>
<linearGradient id="paint0_linear_2596_7267" x1="23.007" y1="29.1577" x2="73.407" y2="77.1077" gradientUnits="userSpaceOnUse">
<stop stop-color="#7FB4E9"/>
<stop offset="1" stop-color="#3346A9"/>
</linearGradient>
<clipPath id="clip0_2596_7267">
<rect width="38.7889" height="39.691" fill="white" transform="translate(43.543 0.5)"/>
</clipPath>
</defs>
</svg>
