<svg width="25" height="25" viewBox="0 0 25 25" fill="none" xmlns="http://www.w3.org/2000/svg">
<g clip-path="url(#clip0_2596_3690)">
<path d="M12.4982 1.72371e-06C11.3582 -0.000596094 10.2235 0.15431 9.12545 0.460436V13.1553C9.15802 13.7571 9.31254 14.3459 9.57963 14.8862C9.84673 15.4264 10.2208 15.9067 10.6792 16.298C11.1376 16.6892 11.6707 16.9832 12.2462 17.1622C12.8217 17.3411 13.4275 17.4012 14.0269 17.3389H14.087C15.9159 17.3385 17.6783 16.6529 19.0267 15.4173C20.375 14.1816 21.2115 12.4856 21.3712 10.6637C21.8321 12.257 21.7941 13.9532 21.2624 15.5242C20.7307 17.0953 19.7308 18.4659 18.3971 19.4519C17.0634 20.4378 15.4598 20.9919 13.8019 21.0395C12.144 21.0871 10.5113 20.626 9.12318 19.7182V21.4635H5.44197V13.2324C5.44197 13.1296 5.44197 13.0283 5.44197 12.9285C5.44197 12.8287 5.44424 12.7221 5.44877 12.6087V2.17856C2.97833 3.86626 1.19519 6.38408 0.42324 9.27467C-0.348709 12.1653 -0.0582492 15.2368 1.24186 17.9315C2.54196 20.6261 4.76547 22.7651 7.50847 23.9598C10.2515 25.1545 13.332 25.3257 16.1905 24.4423C19.049 23.5589 21.4958 21.6795 23.0865 19.1455C24.6772 16.6115 25.3062 13.591 24.8594 10.6327C24.4125 7.67439 22.9193 4.97448 20.6511 3.02343C18.3829 1.07238 15.4901 -0.000383146 12.4982 1.72371e-06Z" fill="#00988F"/>
<path d="M13.9897 8.498C14.8088 8.57617 15.5901 8.8803 16.2464 9.37649C16.9028 9.87267 17.4085 10.5414 17.707 11.3081C18.0056 12.0749 18.0854 12.9094 17.9374 13.7189C17.7895 14.5283 17.4196 15.2807 16.8691 15.8922C17.0313 15.713 17.4361 15.5916 17.6482 15.4533C18.4893 14.897 19.1913 14.1547 19.6997 13.2838C20.4346 12.0193 20.8622 10.6754 20.4789 9.22381C19.9118 7.06226 17.8126 5.68549 15.7849 5.10825C15.6398 5.06629 13.9897 4.74648 13.9897 4.80885V3.03516L10.1406 6.89101L13.9897 10.7412V8.498Z" fill="#4BC1BE"/>
<g style="mix-blend-mode:darken" opacity="0.07">
<path d="M21.3362 3.66016L18.5361 6.46359C19.4513 7.16558 20.176 8.08645 20.4777 9.2262C20.861 10.6778 20.4335 12.0217 19.6986 13.2862C19.1901 14.1571 18.4881 14.8993 17.647 15.4557C17.4361 15.594 17.0301 15.7154 16.8679 15.8946C17.306 15.4094 17.6315 14.8335 17.8212 14.208C18.0109 13.5824 18.06 12.9227 17.9651 12.276C17.8702 11.6293 17.6336 11.0115 17.2722 10.4668C16.9107 9.92215 16.4335 9.46405 15.8745 9.12527L9.76747 15.23C10.2045 15.9491 10.8367 16.5294 11.5906 16.9034C12.3444 17.2774 13.1889 17.4298 14.0259 17.3428H14.086C15.9149 17.3424 17.6773 16.6568 19.0257 15.4211C20.3741 14.1855 21.2105 12.4895 21.3702 10.6676C21.8311 12.2609 21.7931 13.9571 21.2614 15.5281C20.7297 17.0992 19.7298 18.4698 18.3961 19.4558C17.0624 20.4417 15.4588 20.9958 13.8009 21.0434C12.143 21.091 10.5103 20.6299 9.12218 19.7221V21.4674H5.44097V19.5508L3.6582 21.3381C6.00245 23.6824 9.18193 24.9994 12.4972 24.9994C15.8125 24.9994 18.9919 23.6824 21.3362 21.3381C23.6804 18.9939 24.9974 15.8144 24.9974 12.4991C24.9974 9.18388 23.6804 6.0044 21.3362 3.66016Z" fill="#231F20"/>
</g>
</g>
<defs>
<clipPath id="clip0_2596_3690">
<rect width="24.9996" height="25" fill="white"/>
</clipPath>
</defs>
</svg>
