<svg width="70" height="70" viewBox="0 0 70 70" fill="none" xmlns="http://www.w3.org/2000/svg">
<rect width="70" height="70" rx="11.413" fill="url(#paint0_linear_2596_3637)"/>
<rect x="5.3252" y="5.32605" width="28.8646" height="28.8646" rx="4.61834" fill="white"/>
<g clip-path="url(#clip0_2596_3637)">
<path d="M9.50757 27.3844L10.5619 29.2055C10.7809 29.5889 11.0959 29.8901 11.4656 30.1092L15.2309 23.5917H7.7002C7.7002 24.0161 7.80973 24.4406 8.02881 24.824L9.50757 27.3844Z" fill="#0066DA"/>
<path d="M19.6535 15.9246L15.8881 9.4071C15.5184 9.62618 15.2035 9.92741 14.9844 10.3108L8.02881 22.3599C7.81376 22.735 7.70048 23.1598 7.7002 23.5922H15.2309L19.6535 15.9246Z" fill="#00AC47"/>
<path d="M27.8431 30.109C28.2127 29.89 28.5277 29.5887 28.7467 29.2054L29.1849 28.4523L31.2798 24.8239C31.4989 24.4405 31.6084 24.016 31.6084 23.5916H24.0771L25.6797 26.7408L27.8431 30.109Z" fill="#EA4335"/>
<path d="M19.657 15.9231L23.4223 9.40564C23.0526 9.18656 22.6282 9.07703 22.19 9.07703H17.1239C16.6857 9.07703 16.2613 9.20026 15.8916 9.40564L19.657 15.9231Z" fill="#00832D"/>
<path d="M24.0763 23.5917H15.2312L11.4658 30.1092C11.8355 30.3282 12.26 30.4378 12.6981 30.4378H26.6094C27.0476 30.4378 27.472 30.3145 27.8417 30.1092L24.0763 23.5917Z" fill="#2684FC"/>
<path d="M27.8002 16.3354L24.3224 10.3108C24.1033 9.92741 23.7884 9.62618 23.4187 9.4071L19.6533 15.9246L24.0759 23.5922H31.5929C31.5929 23.1678 31.4834 22.7433 31.2643 22.3599L27.8002 16.3354Z" fill="#FFBA00"/>
</g>
<rect x="5.3252" y="35.8092" width="28.8646" height="28.8646" rx="4.61834" fill="white"/>
<g clip-path="url(#clip1_2596_3637)">
<path d="M22.8707 51.9117C22.6752 51.9117 22.5429 51.9248 22.4736 51.9435V53.1967C22.5555 53.2152 22.6565 53.2221 22.795 53.2221C23.3049 53.2221 23.6203 52.9641 23.6203 52.5357C23.6201 52.1451 23.3554 51.9117 22.8707 51.9117Z" fill="black"/>
<path d="M20.7307 46.2144C20.1914 45.6754 19.3176 45.6754 18.7783 46.2144L12.6476 52.3454C12.1084 52.8846 12.1084 53.7585 12.6476 54.298L18.7781 60.4283C19.3173 60.9675 20.1912 60.9675 20.7304 60.4283L26.8612 54.2975C27.1202 54.0387 27.2656 53.6873 27.2656 53.3213C27.2656 52.9554 27.1202 52.6042 26.8612 52.3449L20.7307 46.2144ZM17.5264 52.0019H15.8955V52.9721H17.4195V53.7529H15.8955V55.4595H14.9383V51.2147H17.5264V52.0019ZM21.1918 52.0209H20.0327V55.459H19.0758V52.0209H17.9298V51.2147H21.1918V52.0209ZM24.1865 53.5131C23.8588 53.8159 23.3679 53.9604 22.8013 53.9604C22.6751 53.9604 22.562 53.9544 22.4735 53.935V55.459H21.523V51.2717C21.819 51.2211 22.235 51.1834 22.8203 51.1834C23.412 51.1834 23.8403 51.2971 24.1237 51.5297C24.3948 51.7379 24.5707 52.0901 24.5707 52.5061C24.5705 52.9278 24.4384 53.2804 24.1865 53.5131Z" fill="black"/>
<path d="M26.9641 43.9351C26.8298 43.9255 26.7063 43.8568 26.6274 43.7474C25.6421 42.3808 24.0373 41.5353 22.3285 41.5353C22.2048 41.5353 22.081 41.5397 21.9573 41.5483C21.8462 41.5562 21.7365 41.523 21.648 41.4552C20.6135 40.6594 19.3527 40.2281 18.0315 40.2281C15.6708 40.2281 13.5785 41.6117 12.6255 43.7C12.56 43.8437 12.4244 43.9428 12.2677 43.9625C9.65784 44.2885 7.63184 46.5211 7.63184 49.2179C7.63184 51.6077 9.22386 53.6312 11.4027 54.2882C11.2711 53.9863 11.2006 53.659 11.2006 53.3202C11.2006 52.885 11.3169 52.4687 11.5303 52.1028C10.46 51.5818 9.71872 50.4863 9.71872 49.2179C9.71872 47.4479 11.1587 46.0082 12.9286 46.0082C13.0181 46.0082 13.1058 46.0154 13.1933 46.0228C13.7032 46.0619 14.165 45.7312 14.2892 45.2366C14.721 43.5167 16.2598 42.3153 18.0312 42.3153C19.0434 42.3153 20.0013 42.7061 20.7283 43.4159C20.977 43.6584 21.3294 43.7612 21.6697 43.6904C21.8863 43.6456 22.1077 43.6227 22.3282 43.6227C23.5671 43.6227 24.6741 44.3191 25.2163 45.4407C25.4065 45.835 25.8235 46.0698 26.2592 46.025C26.3677 46.0139 26.4759 46.0087 26.5813 46.0087C28.3515 46.0087 29.7913 47.4487 29.7913 49.2184C29.7913 50.4868 29.05 51.582 27.9797 52.1033C28.1931 52.469 28.3094 52.8852 28.3094 53.3202C28.3094 53.6593 28.2387 53.9868 28.1071 54.289C30.2861 53.6319 31.8779 51.6084 31.8779 49.2184C31.8786 46.4264 29.707 44.1313 26.9641 43.9351Z" fill="black"/>
</g>
<rect x="37.1875" y="37.1875" width="27.125" height="27.125" rx="4.18084" stroke="white" stroke-width="0.875" stroke-dasharray="3.04 3.04"/>
<path d="M50.0844 53.719V48.4462H51.5567V53.719H50.0844ZM48.11 51.7788V50.3864H53.5426V51.7788H48.11Z" fill="white"/>
<rect x="35.8101" y="5.32605" width="28.8646" height="28.8646" rx="4.61834" fill="white"/>
<g clip-path="url(#clip2_2596_3637)">
<path d="M45.1525 8.78894L38.1167 13.3481L43.0136 17.2881L50.0493 12.8978L45.1525 8.78894ZM38.1167 21.1156L45.1525 25.731L50.0493 21.6222L43.0136 17.2881L38.1167 21.1156ZM50.0493 21.6222L55.0025 25.731L61.982 21.1719L57.1414 17.2881L50.0493 21.6222ZM61.982 13.3481L55.0025 8.78894L50.0493 12.8978L57.1414 17.2881L61.982 13.3481ZM50.1056 22.5227L45.1525 26.6316L43.0699 25.2245V26.8005L50.1056 31.0219L57.1414 26.8005V25.2245L55.0025 26.6316L50.1056 22.5227Z" fill="#007EE5"/>
</g>
<defs>
<linearGradient id="paint0_linear_2596_3637" x1="22.05" y1="18.2007" x2="72.45" y2="66.1507" gradientUnits="userSpaceOnUse">
<stop stop-color="#7FB4E9"/>
<stop offset="1" stop-color="#3346A9"/>
</linearGradient>
<clipPath id="clip0_2596_3637">
<rect width="23.9066" height="21.3598" fill="white" transform="translate(7.7002 9.07703)"/>
</clipPath>
<clipPath id="clip1_2596_3637">
<rect width="24.2463" height="24.2463" fill="white" transform="translate(7.63574 38.4069)"/>
</clipPath>
<clipPath id="clip2_2596_3637">
<rect width="24.203" height="22.5144" fill="white" transform="translate(38.1167 8.78894)"/>
</clipPath>
</defs>
</svg>
