<svg width="70" height="70" viewBox="0 0 70 70" fill="none" xmlns="http://www.w3.org/2000/svg">
<g clip-path="url(#clip0_2954_19296)">
<rect width="70" height="70" rx="11.413" fill="url(#paint0_linear_2954_19296)"/>
<g clip-path="url(#clip1_2954_19296)">
<path d="M22.7186 23.5027L18.3868 23.8374C17.1814 23.9305 16.1079 24.5622 15.4413 25.5705L10.4455 33.1263C9.93997 33.891 9.8596 34.8479 10.2304 35.6862C10.6013 36.5245 11.3635 37.1086 12.2692 37.249L16.2355 37.8632C17.1633 32.9394 19.3844 28.0277 22.7186 23.5027Z" fill="white"/>
<path d="M32.1367 53.7644L32.7511 57.7307C32.8914 58.6365 33.4756 59.3987 34.3138 59.7695C34.6625 59.9238 35.0316 59.9999 35.3989 59.9999C35.9148 59.9999 36.4271 59.8496 36.8737 59.5543L44.4297 54.5587C45.438 53.892 46.0697 52.8183 46.1627 51.6132L46.4973 47.2814C41.9722 50.6156 37.0606 52.8367 32.1367 53.7644Z" fill="white"/>
<path d="M30.6451 51.0152C30.7828 51.0152 30.9213 51.0039 31.0595 50.9808C33.1223 50.6359 35.1106 50.0548 37.0073 49.2943L20.7056 32.9927C19.9451 34.8892 19.364 36.8775 19.0191 38.9405C18.8832 39.7537 19.1559 40.5821 19.7388 41.1651L28.8349 50.2611C29.3188 50.745 29.9721 51.0152 30.6451 51.0152Z" fill="white"/>
<path d="M56.0132 32.1681C60.0023 24.4558 60.15 16.3059 59.9416 12.4837C59.8702 11.174 58.826 10.1299 57.5163 10.0585C56.8939 10.0245 56.1563 10 55.325 10C51.051 10 44.2883 10.6474 37.8319 13.9869C32.7008 16.6409 25.9727 22.4847 22.0032 30.1645C22.05 30.2011 22.0958 30.24 22.139 30.2831L39.717 47.8611C39.7602 47.9043 39.7989 47.95 39.8356 47.9969C47.5154 44.0273 53.3592 37.2991 56.0132 32.1681ZM39.0719 20.5702C41.9274 17.7147 46.574 17.7144 49.4297 20.5702C50.8131 21.9535 51.5749 23.7929 51.5749 25.7492C51.5749 27.7055 50.8131 29.5449 49.4297 30.9282C48.0021 32.3558 46.1261 33.0697 44.2509 33.0699C42.375 33.07 40.4999 32.3562 39.0719 30.9282C37.6885 29.5449 36.9266 27.7055 36.9266 25.7492C36.9266 23.7929 37.6885 21.9535 39.0719 20.5702Z" fill="white"/>
<path d="M41.1434 28.8565C42.8568 30.5699 45.6449 30.57 47.3583 28.8565C48.1883 28.0264 48.6454 26.9229 48.6454 25.7491C48.6454 24.5752 48.1883 23.4717 47.3583 22.6417C46.5016 21.785 45.3762 21.3567 44.2509 21.3567C43.1256 21.3567 42.0002 21.785 41.1435 22.6417C40.3135 23.4717 39.8563 24.5752 39.8563 25.7491C39.8563 26.9229 40.3135 28.0265 41.1434 28.8565Z" fill="white"/>
<path opacity="0.6" d="M11.4947 51.2046C11.8696 51.2046 12.2445 51.0616 12.5304 50.7755L17.3129 45.9929C17.885 45.4209 17.885 44.4934 17.3129 43.9214C16.741 43.3493 15.8134 43.3493 15.2414 43.9214L10.4588 48.7039C9.88677 49.276 9.88677 50.2034 10.4588 50.7755C10.7449 51.0615 11.1198 51.2046 11.4947 51.2046Z" fill="white"/>
<path d="M21.6958 48.3043C21.1239 47.7322 20.1963 47.7322 19.6242 48.3043L10.4294 57.4991C9.85735 58.0712 9.85735 58.9986 10.4294 59.5707C10.7155 59.8567 11.0904 59.9997 11.4653 59.9997C11.8402 59.9997 12.2151 59.8567 12.501 59.5706L21.6957 50.3759C22.2679 49.8038 22.2679 48.8764 21.6958 48.3043Z" fill="white"/>
<path opacity="0.4" d="M24.007 52.6872L19.2246 57.4698C18.6525 58.0418 18.6525 58.9693 19.2246 59.5413C19.5106 59.8274 19.8855 59.9704 20.2603 59.9704C20.6351 59.9704 21.0101 59.8275 21.2961 59.5413L26.0786 54.7588C26.6507 54.1867 26.6507 53.2593 26.0786 52.6872C25.5066 52.1152 24.5791 52.1152 24.007 52.6872Z" fill="white"/>
</g>
</g>
<defs>
<linearGradient id="paint0_linear_2954_19296" x1="22.05" y1="18.2007" x2="72.45" y2="66.1507" gradientUnits="userSpaceOnUse">
<stop stop-color="#7FB4E9"/>
<stop offset="1" stop-color="#3346A9"/>
</linearGradient>
<clipPath id="clip0_2954_19296">
<rect width="70" height="70" fill="white"/>
</clipPath>
<clipPath id="clip1_2954_19296">
<rect width="50" height="50" fill="white" transform="translate(10 10)"/>
</clipPath>
</defs>
</svg>